<svg t="1757764175977" class="icon" viewBox="0 0 1024 1024" version="1.1" xmlns="http://www.w3.org/2000/svg" p-id="1014" width="200" height="200"><path d="M349.781333 211.2a39.765333 39.765333 0 0 1-11.989333 54.826667C249.941333 322.432 196.266667 417.493333 196.266667 521.258667c0 168.746667 141.098667 306.090667 315.733333 306.090666s315.733333-137.386667 315.733333-306.090666c0-102.229333-52.096-195.968-137.642666-252.757334a39.594667 39.594667 0 0 1-17.066667-40.618666 39.850667 39.850667 0 0 1 30.848-31.317334 39.338667 39.338667 0 0 1 29.696 5.717334c107.349333 71.253333 173.098667 189.696 173.098667 319.018666 0 213.077333-176.981333 385.365333-394.666667 385.365334s-394.666667-172.288-394.666667-385.365334c0-131.370667 67.84-251.306667 177.92-322.133333a39.296 39.296 0 0 1 54.528 12.032zM512 117.333333a39.381333 39.381333 0 0 1 39.466667 39.68v359.253334a39.381333 39.381333 0 1 1-78.933334 0V157.013333A39.381333 39.381333 0 0 1 512 117.333333z" fill="#000000" p-id="1015"></path></svg>